<svg xmlns="http://www.w3.org/2000/svg" xmlns:xlink="http://www.w3.org/1999/xlink" width="88" height="24" viewBox="0 0 88 24">
    <defs>
        <path id="oo4v2w83ra" d="M0 20.636L87.288 20.636 87.288 2 0 2z"/>
    </defs>
    <g fill="none" fill-rule="evenodd">
        <g>
            <g transform="translate(-20 -16) translate(20 16)">
                <path d="M0 0H88V24H0z"/>
                <path fill="#2B51A2" d="M9.997 2.28C4.69 2.28 0 4.354 0 8.062c0 5.526 6.164 12.546 9.997 12.546s9.997-7.02 9.997-12.546c0-3.708-4.69-5.782-9.997-5.782M27.483 6.495L27.483 9.904 33.918 9.904 33.918 13.792 27.483 13.792 27.483 20.282 23.522 20.282 23.522 2.606 34.042 2.606 34.042 6.495z"/>
                <mask id="f3iu5bsxpb" fill="#fff">
                    <use xlink:href="#oo4v2w83ra"/>
                </mask>
                <path fill="#2B51A2" d="M36.27 20.282h3.713V7.656H36.27v12.626zm-.37-16.01C35.9 3.037 36.913 2 38.126 2c1.212 0 2.228 1.036 2.228 2.273s-1.016 2.273-2.228 2.273c-1.213 0-2.228-1.036-2.228-2.273zM47.41 11.293v4.469c0 1.086.915 1.187 2.549 1.086v3.434c-4.851.505-6.262-.985-6.262-4.52v-4.47h-1.98V7.657h1.98V5.257l3.713-1.135v3.534h2.549v3.637h-2.55zM84.739 11.293v4.469c0 1.086.916 1.187 2.55 1.086v3.434c-4.852.505-6.263-.985-6.263-4.52v-4.47h-1.98V7.657h1.98V5.257l3.713-1.135v3.534h2.55v3.637h-2.55zM74.614 12.656c-.396-1.464-1.51-1.995-2.624-1.995-1.41 0-2.351.707-2.698 1.995h5.322zm-2.277 4.596c1.015 0 1.881-.404 2.376-.96l2.97 1.743c-1.212 1.716-3.044 2.6-5.396 2.6-4.233 0-6.856-2.904-6.856-6.666 0-3.762 2.673-6.666 6.584-6.666 3.614 0 6.288 2.853 6.288 6.666 0 .53-.05 1.035-.15 1.515h-8.786c.47 1.313 1.608 1.768 2.97 1.768zM60.975 8.666c0-1.288-.892-2.272-2.104-2.272h-2.6v4.545h2.6c1.212 0 2.104-.985 2.104-2.273m3.96 0c0 3.359-2.648 6.061-6.064 6.061h-2.6v5.555h-3.96V2.606h6.56c3.416 0 6.064 2.702 6.064 6.06" mask="url(#f3iu5bsxpb)"/>
            </g>
        </g>
    </g>
</svg>
